<?xml version="1.0" encoding="UTF-8"?>
<svg xmlns="http://www.w3.org/2000/svg" xmlns:xlink="http://www.w3.org/1999/xlink" width="64pt" height="86pt" viewBox="0 0 64 86" version="1.1">
<defs>
<g>
<symbol overflow="visible" id="glyph0-0">
<path style="stroke:none;" d=""/>
</symbol>
<symbol overflow="visible" id="glyph0-1">
<path style="stroke:none;" d="M 5.140625 -6.8125 C 5.140625 -6.8125 5.140625 -6.921875 5.015625 -6.921875 C 4.859375 -6.921875 3.921875 -6.828125 3.75 -6.8125 C 3.671875 -6.796875 3.609375 -6.75 3.609375 -6.625 C 3.609375 -6.5 3.703125 -6.5 3.84375 -6.5 C 4.328125 -6.5 4.34375 -6.4375 4.34375 -6.328125 L 4.3125 -6.125 L 3.71875 -3.765625 C 3.53125 -4.140625 3.25 -4.40625 2.796875 -4.40625 C 1.640625 -4.40625 0.40625 -2.9375 0.40625 -1.484375 C 0.40625 -0.546875 0.953125 0.109375 1.71875 0.109375 C 1.921875 0.109375 2.421875 0.0625 3.015625 -0.640625 C 3.09375 -0.21875 3.453125 0.109375 3.921875 0.109375 C 4.28125 0.109375 4.5 -0.125 4.671875 -0.4375 C 4.828125 -0.796875 4.96875 -1.40625 4.96875 -1.421875 C 4.96875 -1.53125 4.875 -1.53125 4.84375 -1.53125 C 4.75 -1.53125 4.734375 -1.484375 4.703125 -1.34375 C 4.53125 -0.703125 4.359375 -0.109375 3.953125 -0.109375 C 3.671875 -0.109375 3.65625 -0.375 3.65625 -0.5625 C 3.65625 -0.8125 3.671875 -0.875 3.703125 -1.046875 Z M 3.078125 -1.1875 C 3.015625 -1 3.015625 -0.984375 2.875 -0.8125 C 2.4375 -0.265625 2.03125 -0.109375 1.75 -0.109375 C 1.25 -0.109375 1.109375 -0.65625 1.109375 -1.046875 C 1.109375 -1.546875 1.421875 -2.765625 1.65625 -3.234375 C 1.96875 -3.8125 2.40625 -4.1875 2.8125 -4.1875 C 3.453125 -4.1875 3.59375 -3.375 3.59375 -3.3125 C 3.59375 -3.25 3.578125 -3.1875 3.5625 -3.140625 Z M 3.078125 -1.1875 "/>
</symbol>
<symbol overflow="visible" id="glyph0-2">
<path style="stroke:none;" d="M 4.53125 -4.984375 C 4.53125 -5.640625 4.359375 -7.03125 3.34375 -7.03125 C 1.953125 -7.03125 0.421875 -4.21875 0.421875 -1.9375 C 0.421875 -1 0.703125 0.109375 1.609375 0.109375 C 3.015625 0.109375 4.53125 -2.75 4.53125 -4.984375 Z M 1.46875 -3.625 C 1.640625 -4.25 1.84375 -5.046875 2.25 -5.765625 C 2.515625 -6.25 2.875 -6.8125 3.328125 -6.8125 C 3.8125 -6.8125 3.875 -6.171875 3.875 -5.609375 C 3.875 -5.109375 3.796875 -4.609375 3.5625 -3.625 Z M 3.46875 -3.296875 C 3.359375 -2.84375 3.15625 -2 2.765625 -1.28125 C 2.421875 -0.59375 2.046875 -0.109375 1.609375 -0.109375 C 1.28125 -0.109375 1.078125 -0.40625 1.078125 -1.328125 C 1.078125 -1.75 1.140625 -2.328125 1.390625 -3.296875 Z M 3.46875 -3.296875 "/>
</symbol>
<symbol overflow="visible" id="glyph1-0">
<path style="stroke:none;" d=""/>
</symbol>
<symbol overflow="visible" id="glyph1-1">
<path style="stroke:none;" d="M 4.6875 -3.765625 C 4.703125 -3.8125 4.71875 -3.875 4.71875 -3.9375 C 4.71875 -4.109375 4.609375 -4.203125 4.4375 -4.203125 C 4.34375 -4.203125 4.0625 -4.140625 4.03125 -3.78125 C 3.84375 -4.140625 3.5 -4.40625 3.09375 -4.40625 C 1.96875 -4.40625 0.734375 -3.015625 0.734375 -1.578125 C 0.734375 -0.59375 1.328125 0 2.046875 0 C 2.640625 0 3.109375 -0.46875 3.203125 -0.578125 L 3.21875 -0.5625 C 3.015625 0.3125 2.890625 0.734375 2.890625 0.75 C 2.84375 0.84375 2.515625 1.828125 1.453125 1.828125 C 1.265625 1.828125 0.9375 1.8125 0.65625 1.71875 C 0.953125 1.640625 1.0625 1.375 1.0625 1.203125 C 1.0625 1.046875 0.953125 0.859375 0.6875 0.859375 C 0.46875 0.859375 0.15625 1.03125 0.15625 1.4375 C 0.15625 1.84375 0.515625 2.046875 1.46875 2.046875 C 2.71875 2.046875 3.4375 1.265625 3.59375 0.671875 Z M 3.40625 -1.28125 C 3.34375 -1.015625 3.109375 -0.765625 2.890625 -0.578125 C 2.6875 -0.40625 2.375 -0.21875 2.078125 -0.21875 C 1.578125 -0.21875 1.4375 -0.734375 1.4375 -1.140625 C 1.4375 -1.609375 1.71875 -2.796875 2 -3.296875 C 2.265625 -3.78125 2.6875 -4.1875 3.109375 -4.1875 C 3.765625 -4.1875 3.90625 -3.375 3.90625 -3.328125 C 3.90625 -3.28125 3.890625 -3.21875 3.875 -3.1875 Z M 3.40625 -1.28125 "/>
</symbol>
<symbol overflow="visible" id="glyph2-0">
<path style="stroke:none;" d=""/>
</symbol>
<symbol overflow="visible" id="glyph2-1">
<path style="stroke:none;" d="M 3.59375 -2.21875 C 3.59375 -2.984375 3.5 -3.546875 3.1875 -4.03125 C 2.96875 -4.34375 2.53125 -4.625 1.984375 -4.625 C 0.359375 -4.625 0.359375 -2.71875 0.359375 -2.21875 C 0.359375 -1.71875 0.359375 0.140625 1.984375 0.140625 C 3.59375 0.140625 3.59375 -1.71875 3.59375 -2.21875 Z M 1.984375 -0.0625 C 1.65625 -0.0625 1.234375 -0.25 1.09375 -0.8125 C 1 -1.21875 1 -1.796875 1 -2.3125 C 1 -2.828125 1 -3.359375 1.09375 -3.734375 C 1.25 -4.28125 1.6875 -4.4375 1.984375 -4.4375 C 2.359375 -4.4375 2.71875 -4.203125 2.84375 -3.796875 C 2.953125 -3.421875 2.96875 -2.921875 2.96875 -2.3125 C 2.96875 -1.796875 2.96875 -1.28125 2.875 -0.84375 C 2.734375 -0.203125 2.265625 -0.0625 1.984375 -0.0625 Z M 1.984375 -0.0625 "/>
</symbol>
<symbol overflow="visible" id="glyph3-0">
<path style="stroke:none;" d=""/>
</symbol>
<symbol overflow="visible" id="glyph3-1">
<path style="stroke:none;" d="M 2.9375 -3.71875 L 4.609375 -3.71875 C 4.734375 -3.71875 5.09375 -3.71875 5.09375 -4.0625 C 5.09375 -4.296875 4.890625 -4.296875 4.6875 -4.296875 L 1.90625 -4.296875 C 1.703125 -4.296875 1.3125 -4.296875 0.875 -3.828125 C 0.546875 -3.46875 0.265625 -2.984375 0.265625 -2.9375 C 0.265625 -2.921875 0.265625 -2.828125 0.390625 -2.828125 C 0.46875 -2.828125 0.484375 -2.875 0.546875 -2.953125 C 1.03125 -3.71875 1.609375 -3.71875 1.8125 -3.71875 L 2.640625 -3.71875 L 1.671875 -0.515625 C 1.625 -0.40625 1.5625 -0.1875 1.5625 -0.15625 C 1.5625 -0.046875 1.640625 0.125 1.859375 0.125 C 2.1875 0.125 2.234375 -0.15625 2.265625 -0.3125 Z M 2.9375 -3.71875 "/>
</symbol>
</g>
</defs>
<g id="surface45510">
<path style=" stroke:none;fill-rule:evenodd;fill:rgb(75.3%,75.3%,75.3%);fill-opacity:1;" d="M 48.972656 70.433594 L 52.339844 68.277344 L 48.027344 61.539063 L 54.765625 57.226563 L 59.078125 63.964844 L 62.449219 61.808594 L 55.980469 51.703125 L 52.609375 53.859375 L 31.046875 20.167969 L 24.308594 24.480469 L 45.871094 58.171875 L 42.503906 60.328125 L 48.972656 70.433594 "/>
<path style=" stroke:none;fill-rule:evenodd;fill:rgb(50.2%,50.2%,50.2%);fill-opacity:1;" d="M 52.339844 68.277344 L 53.554688 62.753906 L 51.398438 59.382813 L 48.027344 61.539063 L 52.339844 68.277344 "/>
<path style=" stroke:none;fill-rule:evenodd;fill:rgb(50.2%,50.2%,50.2%);fill-opacity:1;" d="M 62.449219 61.808594 L 63.660156 56.285156 L 57.191406 46.175781 L 53.824219 48.332031 L 34.417969 18.011719 L 31.046875 20.167969 L 52.609375 53.859375 L 55.980469 51.703125 L 62.449219 61.808594 "/>
<path style=" stroke:none;fill-rule:evenodd;fill:rgb(50.2%,50.2%,50.2%);fill-opacity:1;" d="M 42.503906 60.328125 L 43.714844 54.800781 L 45.871094 58.171875 Z M 42.503906 60.328125 "/>
<path style=" stroke:none;fill-rule:evenodd;fill:rgb(50.2%,50.2%,50.2%);fill-opacity:1;" d="M 33.472656 9.117188 C 31.089844 5.394531 26.144531 4.308594 22.421875 6.691406 C 18.699219 9.074219 17.613281 14.019531 19.996094 17.742188 C 22.378906 21.464844 27.324219 22.550781 31.046875 20.167969 C 34.769531 17.785156 35.855469 12.839844 33.472656 9.117188 Z M 33.472656 9.117188 "/>
<path style=" stroke:none;fill-rule:evenodd;fill:rgb(50.2%,50.2%,50.2%);fill-opacity:1;" d="M 36.574219 21.378906 L 32.261719 14.640625 L 28.890625 16.796875 L 33.203125 23.535156 Z M 36.574219 21.378906 "/>
<path style=" stroke:none;fill-rule:evenodd;fill:rgb(50.2%,50.2%,50.2%);fill-opacity:1;" d="M 17.589844 17.992188 L 19.078125 11.023438 L 34.707031 13.511719 L 33.289063 20.796875 Z M 17.589844 17.992188 "/>
<path style=" stroke:none;fill-rule:evenodd;fill:rgb(75.3%,75.3%,75.3%);fill-opacity:1;" d="M 32.261719 14.640625 C 29.878906 10.921875 24.929688 9.835938 21.210938 12.214844 C 17.488281 14.597656 16.402344 19.546875 18.785156 23.265625 C 21.164063 26.988281 26.113281 28.074219 29.835938 25.691406 C 33.554688 23.3125 34.640625 18.363281 32.261719 14.640625 Z M 32.261719 14.640625 "/>
<path style=" stroke:none;fill-rule:evenodd;fill:rgb(84.3%,42%,0%);fill-opacity:1;" d="M 43.617188 42.539063 C 43.617188 38.539063 37.617188 38.539063 37.617188 42.539063 C 37.617188 46.539063 43.617188 46.539063 43.617188 42.539063 Z M 42.617188 42.539063 C 42.617188 39.871094 38.617188 39.871094 38.617188 42.539063 C 38.617188 45.203125 42.617188 45.203125 42.617188 42.539063 Z M 42.617188 42.539063 "/>
<path style=" stroke:none;fill-rule:evenodd;fill:rgb(84.3%,42%,0%);fill-opacity:1;" d="M 38.464844 45.386719 L 43.464844 40.386719 L 42.765625 39.6875 L 37.765625 44.6875 Z M 38.464844 45.386719 "/>
<path style=" stroke:none;fill-rule:evenodd;fill:rgb(84.3%,42%,0%);fill-opacity:1;" d="M 38.464844 39.6875 L 43.464844 44.6875 L 42.765625 45.386719 L 37.765625 40.386719 Z M 38.464844 39.6875 "/>
<path style="fill:none;stroke-width:0.4;stroke-linecap:butt;stroke-linejoin:round;stroke:rgb(84.3%,42%,0%);stroke-opacity:1;stroke-dasharray:1,3;stroke-miterlimit:10;" d="M 314.523438 701.046875 L 334.738281 713.984375 " transform="matrix(1,0,0,-1,-289,720)"/>
<path style="fill:none;stroke-width:0.4;stroke-linecap:butt;stroke-linejoin:round;stroke:rgb(84.3%,42%,0%);stroke-opacity:1;stroke-dasharray:1,3;stroke-miterlimit:10;" d="M 329.617188 677.460938 L 349.832031 690.398438 " transform="matrix(1,0,0,-1,-289,720)"/>
<path style="fill:none;stroke-width:0.4;stroke-linecap:butt;stroke-linejoin:round;stroke:rgb(84.3%,42%,0%);stroke-opacity:1;stroke-miterlimit:10;" d="M 331.367188 711.828125 L 346.460938 688.242188 " transform="matrix(1,0,0,-1,-289,720)"/>
<path style="fill:none;stroke-width:0.4;stroke-linecap:butt;stroke-linejoin:round;stroke:rgb(84.3%,42%,0%);stroke-opacity:1;stroke-miterlimit:10;" d="M 331.957031 707.625 L 331.285156 711.972656 L 334.949219 709.539063 " transform="matrix(1,0,0,-1,-289,720)"/>
<path style="fill:none;stroke-width:0.4;stroke-linecap:butt;stroke-linejoin:round;stroke:rgb(84.3%,42%,0%);stroke-opacity:1;stroke-miterlimit:10;" d="M 342.800781 690.679688 L 346.46875 688.246094 L 345.796875 692.59375 " transform="matrix(1,0,0,-1,-289,720)"/>
<g style="fill:rgb(84.3%,42%,0%);fill-opacity:1;">
  <use xlink:href="#glyph0-1" x="54.36149" y="19.493377"/>
</g>
<path style="fill:none;stroke-width:0.8;stroke-linecap:butt;stroke-linejoin:round;stroke:rgb(0%,0%,0%);stroke-opacity:1;stroke-dasharray:4;stroke-miterlimit:10;" d="M 314.523438 701.046875 L 314.386719 634.472656 " transform="matrix(1,0,0,-1,-289,720)"/>
<path style="fill:none;stroke-width:0.4;stroke-linecap:butt;stroke-linejoin:round;stroke:rgb(50.2%,0%,100%);stroke-opacity:1;stroke-miterlimit:10;" d="M 300.050781 675.96875 L 299.996094 649.160156 " transform="matrix(1,0,0,-1,-289,720)"/>
<g style="fill:rgb(50.2%,0%,100%);fill-opacity:1;">
  <use xlink:href="#glyph1-1" x="1.108419" y="63.057307"/>
</g>
<g style="fill:rgb(50.2%,0%,100%);fill-opacity:1;">
  <use xlink:href="#glyph2-1" x="5.860419" y="64.551307"/>
</g>
<path style="fill:none;stroke-width:0.4;stroke-linecap:butt;stroke-linejoin:round;stroke:rgb(0%,50.2%,100%);stroke-opacity:1;stroke-miterlimit:10;" d="M 314.464844 659.78125 C 322.34375 659.769531 330.058594 662.011719 336.703125 666.246094 " transform="matrix(1,0,0,-1,-289,720)"/>
<path style="fill:none;stroke-width:0.4;stroke-linecap:butt;stroke-linejoin:round;stroke:rgb(0%,50.2%,100%);stroke-opacity:1;stroke-miterlimit:10;" d="M 332.4375 665.847656 L 336.816406 666.351563 L 334.746094 662.394531 " transform="matrix(1,0,0,-1,-289,720)"/>
<g style="fill:rgb(0%,50.2%,100%);fill-opacity:1;">
  <use xlink:href="#glyph0-2" x="37.07103" y="70.2169"/>
</g>
<path style="fill:none;stroke-width:0.8;stroke-linecap:butt;stroke-linejoin:round;stroke:rgb(50.2%,0%,0%);stroke-opacity:1;stroke-miterlimit:10;" d="M 300.726563 704.125 C 300.601563 697.511719 304.992188 691.664063 311.378906 689.933594 C 317.761719 688.207031 324.503906 691.042969 327.730469 696.8125 C 330.960938 702.585938 329.851563 709.8125 325.039063 714.351563 C 320.222656 718.886719 312.941406 719.566406 307.371094 716.003906 " transform="matrix(1,0,0,-1,-289,720)"/>
<path style="fill:none;stroke-width:0.8;stroke-linecap:butt;stroke-linejoin:round;stroke:rgb(50.2%,0%,0%);stroke-opacity:1;stroke-miterlimit:10;" d="M 298.660156 701.738281 L 300.78125 704.320313 L 302.542969 701.851563 " transform="matrix(1,0,0,-1,-289,720)"/>
<path style="fill:none;stroke-width:0.8;stroke-linecap:butt;stroke-linejoin:round;stroke:rgb(50.2%,0%,0%);stroke-opacity:1;stroke-miterlimit:10;" d="M 307.609375 718.277344 L 307.09375 715.785156 L 309.550781 715.199219 " transform="matrix(1,0,0,-1,-289,720)"/>
<g style="fill:rgb(50.2%,0%,0%);fill-opacity:1;">
  <use xlink:href="#glyph3-1" x="7.208278" y="29.40481"/>
</g>
<path style="fill:none;stroke-width:0.4;stroke-linecap:butt;stroke-linejoin:round;stroke:rgb(50.2%,0%,100%);stroke-opacity:1;stroke-miterlimit:10;" d="M 298.003906 653.125 L 299.992188 649.121094 L 302.046875 653.125 " transform="matrix(1,0,0,-1,-289,720)"/>
</g>
</svg>
